<svg width="80" height="80" viewBox="0 0 80 80" fill="none" xmlns="http://www.w3.org/2000/svg">
  <path d="M40 10C29.5 10 21 18.5 21 29C21 35.4 24.1 41.1 29 44.6V50C29 51.1 29.9 52 31 52H49C50.1 52 51 51.1 51 50V44.6C55.9 41.1 59 35.4 59 29C59 18.5 50.5 10 40 10Z" fill="#FFD700" stroke="#333" stroke-width="2"/>
  <path d="M35 52V54C35 56.2 36.8 58 39 58H41C43.2 58 45 56.2 45 54V52" stroke="#333" stroke-width="2"/>
  <path d="M32 65H48" stroke="#333" stroke-width="2" stroke-linecap="round"/>
  <path d="M36 70H44" stroke="#333" stroke-width="2" stroke-linecap="round"/>
  <path d="M40 5V2" stroke="#FF0054" stroke-width="2" stroke-linecap="round"/>
  <path d="M55 14L58 11" stroke="#FF0054" stroke-width="2" stroke-linecap="round"/>
  <path d="M65 29H68" stroke="#FF0054" stroke-width="2" stroke-linecap="round"/>
  <path d="M25 14L22 11" stroke="#FF0054" stroke-width="2" stroke-linecap="round"/>
  <path d="M15 29H12" stroke="#FF0054" stroke-width="2" stroke-linecap="round"/>
</svg>
