<svg width="400" height="400" viewBox="0 0 400 400" fill="none" xmlns="http://www.w3.org/2000/svg">
  <path d="M200 120C222.091 120 240 102.091 240 80C240 57.9086 222.091 40 200 40C177.909 40 160 57.9086 160 80C160 102.091 177.909 120 200 120Z" fill="#8B5E3C"/>
  <path d="M160 140C160 129 169 120 180 120H220C231 120 240 129 240 140V180C240 191 231 200 220 200H180C169 200 160 191 160 180V140Z" fill="#1E88E5"/>
  <path d="M120 320C120 275.82 155.82 240 200 240C244.18 240 280 275.82 280 320" fill="#5D4037"/>
  <path d="M120 320C120 320 140 340 200 340C260 340 280 320 280 320" fill="#5D4037"/>
  <path d="M180 200V240" stroke="#1E88E5" stroke-width="40"/>
  <path d="M220 200V240" stroke="#1E88E5" stroke-width="40"/>
  <path d="M160 140H240" stroke="#FFFFFF" stroke-width="10"/>
  <path d="M190 80H210" stroke="#000000" stroke-width="5"/>
  <path d="M180 70C180 70 185 75 190 70" stroke="#000000" stroke-width="2"/>
  <path d="M220 70C220 70 215 75 210 70" stroke="#000000" stroke-width="2"/>
  <path d="M200 90C200 90 195 95 200 100C205 95 200 90 200 90Z" fill="#FF0000"/>
</svg>
